<svg width="36" height="42" viewBox="0 0 36 42" fill="none"
  xmlns="http://www.w3.org/2000/svg">
  <path id="Icon Shape" fill-rule="evenodd" clip-rule="evenodd" d="M18.0386 0.03375C18.3136 0.01375 18.5799 0 18.8399 0L18.8374 0.00375C24.8984 0.0169757 24.8045 6.15385 24.7485 9.81551L24.7485 9.81593L24.7485 9.81622L24.7485 9.81645C24.7462 9.96127 24.7441 10.1022 24.7424 10.2388C24.7167 12.5399 25.9639 14.11 27.2634 15.7458L27.3461 15.85C28.5249 17.2563 30.0811 19.3062 30.9661 21.6562C31.6961 23.565 31.9761 25.68 31.2599 27.81C31.3726 27.8168 31.4813 27.8549 31.5736 27.92C31.6342 27.9806 31.6929 28.0139 31.7509 28.0468C31.7983 28.0736 31.8452 28.1003 31.8924 28.1413C32.4124 28.5775 32.5686 29.215 32.7124 29.8862C32.8624 30.5362 32.9924 31.0963 33.2786 31.4275L33.2849 31.4338V31.5975C34.1386 32.535 34.5086 33.225 34.4699 33.8887C34.4374 34.5337 33.9686 34.9812 33.3886 35.315C33.0474 35.5196 32.6549 35.7104 32.2439 35.9101L32.2439 35.9101C31.2589 36.3888 30.168 36.9189 29.4236 37.815C28.3174 39.1037 26.9499 39.8913 25.6686 39.995C24.3786 40.0925 23.1736 39.5062 22.5236 38.2113V38.205C22.5022 38.1513 22.4826 38.1046 22.4645 38.0615L22.4644 38.0613C22.4055 37.9211 22.363 37.82 22.3286 37.645C21.43 37.7081 20.5931 37.5793 19.8303 37.4619C19.1734 37.3607 18.5714 37.2681 18.0324 37.3138C17.1274 37.3718 16.4009 37.523 15.773 37.6536L15.7729 37.6537L15.7728 37.6537C15.2117 37.7704 14.7293 37.8708 14.2686 37.8737C13.8692 38.6745 13.1305 39.253 12.2574 39.4487C11.0074 39.78 9.43738 39.4412 7.89613 38.66C6.95428 38.1594 5.85021 38.0293 4.8204 37.908L4.82029 37.908C4.26883 37.843 3.73867 37.7805 3.26613 37.665C2.59613 37.4425 1.99613 37.2213 1.70488 36.6613C1.41863 36.0938 1.46363 35.3187 1.87988 34.1875C2.00101 33.8113 1.9257 33.3102 1.83497 32.7066L1.81488 32.5725C1.76988 32.345 1.72363 32.0062 1.72363 31.6812C1.71613 31.3287 1.79488 30.9912 1.94488 30.6775C2.26691 30.0216 2.80696 29.7881 3.30623 29.5723L3.38363 29.5387C3.51377 29.4836 3.64097 29.4353 3.76374 29.3886C4.13384 29.2479 4.46364 29.1225 4.71238 28.8738C4.86687 28.6995 5.01532 28.4947 5.16975 28.2817C5.36641 28.0104 5.57276 27.7258 5.81363 27.4737C5.85925 27.3872 5.92376 27.312 6.00238 27.2537C5.79363 25.9125 6.01613 24.485 6.47738 23.0987C7.45988 20.1512 9.52988 17.3188 11.0086 15.5675C12.2586 13.7887 12.6286 12.35 12.7586 10.5337C12.7757 10.1285 12.7404 9.59136 12.6998 8.97355C12.4912 5.80066 12.1429 0.501436 18.0386 0.03375ZM19.7449 5.67625H19.7186V5.67875C19.3599 5.67875 19.0149 5.79625 18.7299 6.01C18.3974 6.2175 18.1499 6.53125 18.0136 6.89625C17.8372 7.29974 17.7522 7.73729 17.7649 8.1775V8.21125C17.7668 8.3221 17.7756 8.43273 17.7911 8.5425C17.9734 8.61255 18.2033 8.68614 18.4302 8.75877L18.4303 8.75879L18.4305 8.75884L18.4305 8.75885C18.5598 8.80025 18.6882 8.84132 18.8061 8.88125C18.7886 8.73125 18.7749 8.58125 18.7749 8.4325V8.39875C18.7832 8.1701 18.8341 7.94501 18.9249 7.735C18.9909 7.52555 19.1072 7.33544 19.2636 7.18125C19.4061 7.005 19.5436 6.96 19.6999 6.96H19.7249C19.8894 6.96 20.0223 7.06299 20.1609 7.17044L20.1749 7.18125C20.202 7.22457 20.2272 7.26372 20.2508 7.30035C20.3471 7.44977 20.4164 7.55731 20.4736 7.735C20.5467 7.94854 20.5822 8.1731 20.5786 8.39875V8.4325C20.5649 8.66625 20.5199 8.89375 20.4349 9.1025C20.3957 9.16886 20.321 9.24069 20.2506 9.30836C20.2043 9.35286 20.1599 9.39557 20.1286 9.43375C20.2532 9.4604 20.3753 9.49761 20.4936 9.545C20.5901 9.623 20.6922 9.65992 20.8017 9.69956C20.8555 9.71899 20.911 9.73909 20.9686 9.765C21.0183 9.78392 21.0624 9.80843 21.1051 9.83218L21.1051 9.8322L21.1124 9.83625C21.2714 9.67804 21.3939 9.48689 21.4711 9.27625C21.6336 8.90625 21.7174 8.5025 21.7174 8.0975L21.7236 8.1375C21.7236 8.14437 21.7252 8.15063 21.7268 8.15688C21.7283 8.16313 21.7299 8.16938 21.7299 8.17625V8.00125C21.7299 8.01688 21.7283 8.03312 21.7268 8.04938C21.7252 8.06563 21.7236 8.08187 21.7236 8.0975C21.7124 7.655 21.6199 7.32375 21.4436 6.89375C21.2686 6.55625 21.0336 6.22875 20.7149 6.0025C20.4011 5.78125 20.0961 5.67625 19.7449 5.67625ZM14.7836 5.775H14.8424C15.0774 5.775 15.2924 5.85375 15.5074 5.99625C15.7536 6.21125 15.9511 6.4775 16.0811 6.77C16.2311 7.10375 16.3149 7.44125 16.3411 7.88375V7.89C16.3474 8.11125 16.3474 8.23 16.3349 8.33375V8.47L16.1986 8.50875C15.9996 8.58031 15.8329 8.67569 15.672 8.76779L15.6718 8.76787L15.6718 8.76788L15.6718 8.76788L15.6718 8.76789L15.6718 8.76789L15.6718 8.7679C15.6276 8.7932 15.5838 8.81826 15.5399 8.8425C15.5599 8.6925 15.5599 8.5425 15.5461 8.39875V8.3725C15.5303 8.1864 15.4947 8.07812 15.441 7.9145L15.4099 7.81875C15.3565 7.64765 15.2601 7.49313 15.1299 7.37C15.048 7.29701 14.9407 7.25927 14.8311 7.265H14.7911C14.6749 7.27125 14.5761 7.33 14.4861 7.48625C14.3759 7.613 14.3059 7.76962 14.2849 7.93625C14.2386 8.11125 14.2249 8.3 14.2449 8.49V8.50875C14.2649 8.7375 14.3036 8.84875 14.3811 9.06875C14.4314 9.23832 14.5259 9.39147 14.6549 9.5125C14.6749 9.5325 14.6886 9.54625 14.7136 9.55125C14.6662 9.59151 14.6251 9.61868 14.5864 9.64419C14.5303 9.68127 14.4794 9.71485 14.4224 9.78L14.3924 9.80137C14.3349 9.8428 14.2734 9.88705 14.2011 9.89875C14.0278 9.69023 13.875 9.46543 13.7449 9.2275C13.5854 8.8771 13.497 8.49854 13.4849 8.11375C13.4596 7.73767 13.5037 7.36016 13.6149 7C13.7136 6.675 13.8699 6.36875 14.0899 6.10875C14.3049 5.8875 14.5199 5.7775 14.7861 5.7775L14.7836 5.775ZM19.0936 9.28375C18.2874 8.72375 17.6224 8.62 17.0686 8.62L17.0699 8.62125C16.7849 8.62125 16.5224 8.66625 16.2961 8.725C15.6174 8.9475 15.1761 9.39 14.8961 9.72875V9.735H14.8899C14.841 9.77691 14.7802 9.81991 14.6307 9.92559L14.5961 9.95C14.535 9.98956 14.4622 10.0445 14.3768 10.1089L14.3768 10.1089L14.3768 10.1089L14.3768 10.1089C14.2248 10.2236 14.033 10.3683 13.7961 10.51C13.4636 10.7312 13.3599 11.0625 13.4699 11.5112C13.5874 11.8425 13.9449 12.2863 14.6161 12.6962H14.6224V12.7025C14.8738 12.8361 15.0755 13.0103 15.2674 13.1761L15.2674 13.1761C15.3933 13.2848 15.5149 13.3899 15.6436 13.4775C15.8139 13.5998 15.9922 13.7105 16.1774 13.8088C16.4175 13.8934 16.6717 13.9312 16.9261 13.92C17.6003 13.9632 18.1087 13.7186 18.5562 13.5032L18.6124 13.4762C18.8467 13.3626 19.0635 13.2196 19.2792 13.0775L19.2792 13.0774L19.2792 13.0774L19.2792 13.0774L19.2792 13.0774L19.2793 13.0774L19.2793 13.0774C19.4835 12.9428 19.6866 12.8089 19.9024 12.7013V12.695C20.8186 12.3637 21.4699 11.81 21.6786 11.2887C21.782 11.037 21.7724 10.753 21.6524 10.5087V10.73C21.5286 10.5087 21.2824 10.2875 20.8524 10.0588C20.7363 10.0161 20.6288 9.97709 20.5286 9.94068C19.8646 9.69951 19.5183 9.57372 19.0936 9.28375ZM21.7299 12.1862L21.7307 12.1894C21.3856 12.6841 20.767 13.1338 19.9924 13.355H19.9861C19.7821 13.4169 19.5685 13.549 19.3349 13.6934C19.1536 13.8055 18.9602 13.925 18.7499 14.025C18.3086 14.2475 17.7736 14.4688 17.0899 14.4688C17.0324 14.4688 16.9736 14.4688 16.9086 14.4625C16.2436 14.4625 15.8011 14.2337 15.4499 13.9025C15.2763 13.7935 15.122 13.6576 14.9674 13.5212C14.808 13.3807 14.6482 13.2398 14.4661 13.1275C14.3928 13.0617 14.2631 12.9766 14.1539 12.905L14.1539 12.9049L14.1538 12.9049C14.0806 12.8569 14.0165 12.8148 13.9849 12.7887C13.8552 15.231 12.4778 18.2019 11.4779 20.3586C11.2731 20.8004 11.0841 21.2081 10.9249 21.57C10.2753 23.0878 9.90887 24.7116 9.84363 26.3612C8.14613 24.1025 9.38863 21.1925 10.0474 19.9425C10.7899 18.5425 10.9061 18.21 10.7311 18.3137C10.0599 19.4025 9.01113 21.14 8.60113 22.9237C8.39238 23.8538 8.35363 24.7725 8.62738 25.6637C8.90113 26.5375 9.49363 27.325 10.5474 27.9888C11.9736 28.8662 12.9511 29.7463 13.5224 30.52C14.1024 31.3013 14.2786 32.0175 14.1024 32.4613C14.002 32.7061 13.8145 32.9051 13.5761 33.02C13.3674 33.08 13.1061 33.1312 12.8011 33.1312C12.982 33.2914 13.1375 33.4781 13.2624 33.685C13.5224 33.9513 13.7436 34.2512 13.9336 34.5762C16.8749 36.5812 20.3449 35.8063 22.8449 34.0163L22.8538 33.9857C23.0995 33.1437 23.3404 32.3183 23.3799 31.765C23.4386 30.5725 23.5036 29.5375 23.7186 28.6462C23.9386 27.7862 24.3236 27.1162 25.0399 26.6662C25.1304 26.6507 25.221 26.6199 25.3127 26.5888C25.3387 26.5799 25.3649 26.5711 25.3911 26.5625C25.393 26.4857 25.4014 26.4092 25.4161 26.3337C25.6249 24.9987 26.8424 24.895 28.3661 25.5588C29.8374 26.2225 30.3974 26.8225 30.1424 27.6025H30.1686C30.2009 27.6025 30.234 27.602 30.2673 27.6014C30.3347 27.6003 30.403 27.5992 30.4674 27.6025V27.6737C30.7736 26.6725 30.1361 26.0025 28.4174 25.1087C28.3226 25.1037 28.2318 25.0645 28.1425 25.0259C28.1212 25.0166 28.0999 25.0074 28.0786 24.9987C28.3074 24.0562 28.2536 23.1038 28.0386 22.2125C27.5699 20.2412 26.2824 18.5075 25.2986 17.6225C25.1174 17.6225 25.1361 17.845 25.5074 18.1763C26.4124 19.01 28.3974 22.005 27.3174 24.7912C27.0099 24.7125 26.7236 24.675 26.4636 24.6812C26.0536 22.4075 25.1036 20.5325 24.6286 19.6413C23.7303 17.982 22.3311 14.553 21.7307 12.1894L21.7311 12.1887L21.7299 12.1862ZM26.8474 29.4125C25.9499 29.1925 25.4411 28.1175 25.3761 27.1162L25.3724 27.12L25.3011 27.16C24.7411 27.465 24.4274 28.0187 24.2261 28.7937C24.0311 29.5962 23.9661 30.6312 23.9074 31.8225C23.8657 32.4737 23.6413 33.2317 23.4096 34.0146L23.4095 34.0147L23.4095 34.0147C23.3143 34.3363 23.2179 34.662 23.1324 34.9862C22.8399 36.0938 22.6899 37.135 23.0411 37.8L23.0474 37.8062C23.6074 38.9712 24.5649 39.3937 25.6711 39.3025C26.7799 39.2175 28.0349 38.5475 29.0649 37.3175C29.8878 36.3219 31.0367 35.7699 32.0133 35.3008L32.0134 35.3007C32.4431 35.0943 32.8394 34.9039 33.1599 34.6987C33.6799 34.3662 33.9674 34.145 33.9936 33.71C34.0061 33.3187 33.7386 32.6875 32.9324 31.8088C32.5314 31.3658 32.4087 30.7869 32.2774 30.1675L32.2486 30.0325C32.1061 29.4587 31.9424 28.905 31.5974 28.5737L31.5911 28.5675C31.1436 28.1375 30.7061 28.11 30.1799 28.1237L29.8286 28.1375C29.2361 28.8587 27.8236 29.6337 26.8474 29.4125ZM7.34863 27.2H7.36863C7.45988 27.2 7.54488 27.2063 7.62863 27.2263C8.25363 27.3175 8.80738 27.78 9.33488 28.4763L10.8511 31.25L10.8574 31.2563C11.1411 31.8781 11.6463 32.4999 12.1723 33.1473C12.3949 33.4213 12.6213 33.6999 12.8361 33.985C13.5599 34.98 14.1199 35.8713 14.0549 36.6012V36.615C13.9561 37.8512 13.2536 38.5213 12.1799 38.77C11.1049 38.9912 9.64613 38.77 8.18863 37.995C7.02302 37.3513 5.697 37.2299 4.5869 37.1283C4.16009 37.0892 3.7652 37.053 3.42363 36.9912C2.81238 36.8813 2.40863 36.6525 2.21863 36.3213C2.03738 35.99 2.02988 35.3175 2.42738 34.27V34.265C2.60605 33.7519 2.50242 33.1244 2.40785 32.5517L2.38238 32.3963C2.29113 31.7313 2.24613 31.2163 2.45363 30.8325C2.68253 30.3511 3.00844 30.2068 3.40514 30.0313C3.46987 30.0026 3.53649 29.9732 3.60488 29.9412C3.73833 29.8808 3.87858 29.8287 4.02123 29.7757L4.02125 29.7757C4.40105 29.6346 4.79787 29.4871 5.12863 29.16H5.13488V29.1538C5.36035 28.919 5.55644 28.6523 5.74633 28.3942L5.74634 28.3941L5.74635 28.3941L5.74636 28.3941L5.74638 28.3941C5.91335 28.1671 6.07551 27.9466 6.24863 27.76C6.56238 27.4213 6.87988 27.2 7.34863 27.2ZM18.7928 12.3173L18.7929 12.3173L18.7929 12.3172C18.9621 12.2315 19.1259 12.1484 19.2836 12.0763H19.2824C19.6586 11.855 20.1274 11.5238 20.4336 11.295C20.7336 10.9625 20.8886 10.7675 20.6736 10.7413C20.5505 10.7413 20.5025 10.8155 20.4334 10.9224C20.3831 11.0001 20.3218 11.095 20.2124 11.1912C20.0253 11.3134 19.8146 11.4696 19.6087 11.6221C19.4417 11.7458 19.2779 11.8672 19.1324 11.9663C18.5599 12.2975 17.6099 12.7463 16.8011 12.7463C16.0054 12.7463 15.3607 12.3092 14.8741 11.9793L14.8549 11.9663C14.7708 11.8883 14.6922 11.8105 14.6186 11.7376C14.4821 11.6024 14.3625 11.484 14.2561 11.4125C14.2156 11.3733 14.1851 11.3232 14.1548 11.2736C14.0984 11.181 14.0429 11.09 13.9249 11.0738C13.8074 11.0738 13.7749 11.4125 14.0486 11.6325C14.1394 11.6972 14.248 11.7994 14.3741 11.9181C14.4649 12.0037 14.5648 12.0978 14.6736 12.1925C15.1874 12.5262 15.8974 12.9675 16.8024 12.9675C17.5101 12.9675 18.1858 12.625 18.7928 12.3173ZM17.4799 9.43375V9.4025C17.4736 9.36875 17.4986 9.33125 17.5311 9.3175C17.6474 9.24625 17.8299 9.27125 17.9611 9.32375C18.0649 9.32375 18.2274 9.43375 18.2149 9.55C18.2011 9.62875 18.0711 9.66125 17.9861 9.66125C17.9213 9.66125 17.8688 9.62429 17.8155 9.5868C17.7949 9.57223 17.7741 9.55759 17.7524 9.545C17.7287 9.5377 17.699 9.53339 17.6678 9.52888C17.587 9.51719 17.4967 9.50412 17.4786 9.43375H17.4799ZM16.3703 9.52904C16.4489 9.51765 16.5368 9.50491 16.5611 9.43375H16.5536V9.4025C16.5674 9.36875 16.5336 9.33125 16.5074 9.3175C16.3774 9.245 16.2086 9.27 16.0724 9.32375C15.9674 9.32375 15.8124 9.43375 15.8236 9.545C15.8311 9.6275 15.9674 9.66125 16.0524 9.66125C16.1175 9.66125 16.1693 9.62492 16.2223 9.58775C16.2435 9.57288 16.2649 9.55786 16.2874 9.545C16.3108 9.53766 16.3398 9.53345 16.3703 9.52904Z" fill="white"/>
</svg>
